<svg fill="none" height="100%" width="100%" viewBox="0 0 800 600" xmlns:xlink="http://www.w3.org/1999/xlink" xmlns="http://www.w3.org/2000/svg"><g transform="matrix(0.625,0,0,1.111,0,-100)" visibility="hidden" id="i0"><rect y="0" x="0" fill="#2e49a0" height="720" width="1280" /></g><g id="i1"><g transform="translate(234,79.75)"><g transform="rotate(2)"><animateTransform repeatCount="indefinite" type="rotate" attributeName="transform" dur="2s" begin="0s" calcMode="spline" values="2; -2; 2; 2" keyTimes="0; 0.5; 0.991667; 1" keySplines="0.333 0 0.667 1; 0.333 0 0.667 1; 0 0 1 1" fill="freeze" /><g transform="scale(1,1) translate(135.5,220.25)"><g id="i2"><g transform="translate(-10.191,-221.419)"><g transform="rotate(2)"><animateTransform repeatCount="indefinite" type="rotate" attributeName="transform" dur="2s" begin="0s" calcMode="spline" values="2; -2; 2; 2" keyTimes="0; 0.5; 0.991667; 1" keySplines="0 0 1 1; 0 0 1 1; 0 0 1 1" fill="freeze" /><g transform="scale(2.53,2.53) translate(-45.379,-48.253)"><g transform="matrix(0.395,0,0,0.395,154.941,143.281)" id="i3"><g id="i4"><path stroke-linejoin="round" stroke-linecap="round" stroke-width="3" stroke="#ecd84f" fill="#ecd84f" d="M-214.5,-78.5C-214.5,-78.5,-273.5,-243.5,-273.5,-243.5" /></g></g></g></g></g></g></g></g></g></g><g id="i1"><g transform="translate(234,79.75)"><g transform="rotate(2)"><animateTransform repeatCount="indefinite" type="rotate" attributeName="transform" dur="2s" begin="0s" calcMode="spline" values="2; -2; 2; 2" keyTimes="0; 0.5; 0.991667; 1" keySplines="0.333 0 0.667 1; 0.333 0 0.667 1; 0 0 1 1" fill="freeze" /><g transform="scale(1,1) translate(135.5,220.25)"><g id="i2"><g transform="translate(-10.191,-221.419)"><g transform="rotate(2)"><animateTransform repeatCount="indefinite" type="rotate" attributeName="transform" dur="2s" begin="0s" calcMode="spline" values="2; -2; 2; 2" keyTimes="0; 0.5; 0.991667; 1" keySplines="0 0 1 1; 0 0 1 1; 0 0 1 1" fill="freeze" /><g transform="scale(2.53,2.53) translate(-45.379,-48.253)"><g transform="matrix(0.395,0,0,0.395,154.941,143.281)" id="i5"><g id="i4"><path stroke-linejoin="round" stroke-linecap="round" stroke-width="3" stroke="#ecd84f" fill="#ecd84f" d="M-335,-78.5C-335,-78.5,-273.5,-243.5,-273.5,-243.5" /></g></g></g></g></g></g></g></g></g></g><g id="i1"><g transform="translate(234,79.75)"><g transform="rotate(2)"><animateTransform repeatCount="indefinite" type="rotate" attributeName="transform" dur="2s" begin="0s" calcMode="spline" values="2; -2; 2; 2" keyTimes="0; 0.5; 0.991667; 1" keySplines="0.333 0 0.667 1; 0.333 0 0.667 1; 0 0 1 1" fill="freeze" /><g transform="scale(1,1) translate(135.5,220.25)"><g id="i2"><g transform="translate(-10.191,-221.419)"><g transform="rotate(2)"><animateTransform repeatCount="indefinite" type="rotate" attributeName="transform" dur="2s" begin="0s" calcMode="spline" values="2; -2; 2; 2" keyTimes="0; 0.5; 0.991667; 1" keySplines="0 0 1 1; 0 0 1 1; 0 0 1 1" fill="freeze" /><g transform="scale(2.53,2.53) translate(-45.379,-48.253)"><g transform="matrix(0.365,0,0,0.365,146.721,144.182)" id="i6"><g id="i4"><path stroke-width="3" stroke="#ffffff" fill="#aa6a26" d="M-209.75,-81.5C-209.75,-81.5,-337.75,-81.5,-337.75,-81.5C-337.75,-81.5,-338.5,-67.25,-331.75,-67.25C-325,-67.25,-227.75,-67.25,-218.5,-67.25C-209.25,-67.25,-209.75,-81.5,-209.75,-81.5Z" /></g></g></g></g></g></g></g></g></g></g><g id="i1"><g transform="translate(234,79.75)"><g transform="rotate(2)"><animateTransform repeatCount="indefinite" type="rotate" attributeName="transform" dur="2s" begin="0s" calcMode="spline" values="2; -2; 2; 2" keyTimes="0; 0.5; 0.991667; 1" keySplines="0.333 0 0.667 1; 0.333 0 0.667 1; 0 0 1 1" fill="freeze" /><g transform="scale(1,1) translate(135.5,220.25)"><g id="i2"><g transform="translate(-10.191,-221.419)"><g transform="rotate(2)"><animateTransform repeatCount="indefinite" type="rotate" attributeName="transform" dur="2s" begin="0s" calcMode="spline" values="2; -2; 2; 2" keyTimes="0; 0.5; 0.991667; 1" keySplines="0 0 1 1; 0 0 1 1; 0 0 1 1" fill="freeze" /><g transform="scale(2.53,2.53) translate(-45.379,-48.253)"><g transform="matrix(0.395,0,0,0.395,154.942,143.281)" id="i7"><g id="i4"><path stroke-width="3" stroke="#ffffff" fill="#f8e71c" d="M-209.75,-81.5C-209.75,-81.5,-248.25,-81.5,-248.25,-81.5C-248.25,-81.5,-337.75,-81.5,-337.75,-81.5C-337.75,-81.5,-338.5,-67.25,-331.75,-67.25C-325,-67.25,-227.75,-67.25,-218.5,-67.25C-209.25,-67.25,-209.75,-81.5,-209.75,-81.5Z" /></g><g id="i8"><path stroke-width="3" stroke="#ffffff" fill="#ecd84f" d="M-246.125,-81.625C-246.125,-81.625,-252.625,-67.125,-252.625,-67.125C-252.625,-67.125,-249,-67.25,-249,-67.25C-249,-67.25,-242.5,-81.375,-242.5,-81.375C-242.5,-81.375,-246.125,-81.625,-246.125,-81.625Z" /></g><g id="i9"><path stroke-width="3" stroke="#ffffff" fill="#ecd84f" d="M-223.281,-81.469C-223.281,-81.469,-229.781,-66.969,-229.781,-66.969C-229.781,-66.969,-227.25,-67.25,-227.25,-67.25C-227.25,-67.25,-220.594,-81.531,-220.594,-81.531C-220.594,-81.531,-223.281,-81.469,-223.281,-81.469Z" /></g></g></g></g></g></g></g></g></g></g><g id="i1"><g transform="translate(234,79.75)"><g transform="rotate(2)"><animateTransform repeatCount="indefinite" type="rotate" attributeName="transform" dur="2s" begin="0s" calcMode="spline" values="2; -2; 2; 2" keyTimes="0; 0.5; 0.991667; 1" keySplines="0.333 0 0.667 1; 0.333 0 0.667 1; 0 0 1 1" fill="freeze" /><g transform="scale(1,1) translate(135.5,220.25)"><g id="i2"><g transform="translate(-10.191,-221.419)"><g transform="rotate(2)"><animateTransform repeatCount="indefinite" type="rotate" attributeName="transform" dur="2s" begin="0s" calcMode="spline" values="2; -2; 2; 2" keyTimes="0; 0.5; 0.991667; 1" keySplines="0 0 1 1; 0 0 1 1; 0 0 1 1" fill="freeze" /><g transform="scale(2.53,2.53) translate(-45.379,-48.253)"><g transform="matrix(0.395,0,0,0.395,154.941,143.281)" id="i10"><g id="i4"><path stroke-width="3" stroke="#ffffff" fill="#ecd84f" d="M-237.875,-82.125C-237.875,-82.125,-244.375,-67.125,-244.375,-67.125C-244.375,-67.125,-232.25,-67.125,-232.25,-67.125C-232.25,-67.125,-226.125,-81.75,-226.125,-81.75C-226.125,-81.75,-237.875,-82.125,-237.875,-82.125Z" /></g></g></g></g></g></g></g></g></g></g><g id="i1"><g transform="translate(234,79.75)"><g transform="rotate(2)"><animateTransform repeatCount="indefinite" type="rotate" attributeName="transform" dur="2s" begin="0s" calcMode="spline" values="2; -2; 2; 2" keyTimes="0; 0.5; 0.991667; 1" keySplines="0.333 0 0.667 1; 0.333 0 0.667 1; 0 0 1 1" fill="freeze" /><g transform="scale(1,1) translate(135.5,220.25)"><g opacity="0" id="i2"><g transform="translate(-10.191,-221.419)"><g transform="rotate(2)"><animateTransform repeatCount="indefinite" type="rotate" attributeName="transform" dur="2s" begin="0s" calcMode="spline" values="2; -2; 2; 2" keyTimes="0; 0.5; 0.991667; 1" keySplines="0 0 1 1; 0 0 1 1; 0 0 1 1" fill="freeze" /><g transform="scale(2.53,2.53) translate(-45.379,-48.253)" /></g></g></g></g></g></g></g><g id="i1"><g transform="translate(234,79.75)"><g transform="rotate(2)"><animateTransform repeatCount="indefinite" type="rotate" attributeName="transform" dur="2s" begin="0s" calcMode="spline" values="2; -2; 2; 2" keyTimes="0; 0.5; 0.991667; 1" keySplines="0.333 0 0.667 1; 0.333 0 0.667 1; 0 0 1 1" fill="freeze" /><g transform="scale(1,1) translate(135.5,220.25)"><g id="i2"><g transform="translate(-262.02,-226.206)"><g transform="rotate(-2)"><animateTransform repeatCount="indefinite" type="rotate" attributeName="transform" dur="2s" begin="0s" calcMode="spline" values="-2; 2; -2; -2" keyTimes="0; 0.5; 0.991667; 1" keySplines="0 0 1 1; 0 0 1 1; 0 0 1 1" fill="freeze" /><g transform="scale(2.53,2.53) translate(-47.818,-46.361)"><g transform="matrix(0.395,0,0,0.395,154.941,143.281)" id="i11"><g id="i4"><path stroke-linejoin="round" stroke-linecap="round" stroke-width="3" stroke="#ecd84f" fill="#ecd84f" d="M-214.5,-78.5C-214.5,-78.5,-273.5,-243.5,-273.5,-243.5" /></g></g></g></g></g></g></g></g></g></g><g id="i1"><g transform="translate(234,79.75)"><g transform="rotate(2)"><animateTransform repeatCount="indefinite" type="rotate" attributeName="transform" dur="2s" begin="0s" calcMode="spline" values="2; -2; 2; 2" keyTimes="0; 0.5; 0.991667; 1" keySplines="0.333 0 0.667 1; 0.333 0 0.667 1; 0 0 1 1" fill="freeze" /><g transform="scale(1,1) translate(135.5,220.25)"><g id="i2"><g transform="translate(-262.02,-226.206)"><g transform="rotate(-2)"><animateTransform repeatCount="indefinite" type="rotate" attributeName="transform" dur="2s" begin="0s" calcMode="spline" values="-2; 2; -2; -2" keyTimes="0; 0.5; 0.991667; 1" keySplines="0 0 1 1; 0 0 1 1; 0 0 1 1" fill="freeze" /><g transform="scale(2.53,2.53) translate(-47.818,-46.361)"><g transform="matrix(0.395,0,0,0.395,154.941,143.281)" id="i12"><g id="i4"><path stroke-linejoin="round" stroke-linecap="round" stroke-width="3" stroke="#ecd84f" fill="#ecd84f" d="M-335,-78.5C-335,-78.5,-273.5,-243.5,-273.5,-243.5" /></g></g></g></g></g></g></g></g></g></g><g id="i1"><g transform="translate(234,79.75)"><g transform="rotate(2)"><animateTransform repeatCount="indefinite" type="rotate" attributeName="transform" dur="2s" begin="0s" calcMode="spline" values="2; -2; 2; 2" keyTimes="0; 0.5; 0.991667; 1" keySplines="0.333 0 0.667 1; 0.333 0 0.667 1; 0 0 1 1" fill="freeze" /><g transform="scale(1,1) translate(135.5,220.25)"><g id="i2"><g transform="translate(-262.02,-226.206)"><g transform="rotate(-2)"><animateTransform repeatCount="indefinite" type="rotate" attributeName="transform" dur="2s" begin="0s" calcMode="spline" values="-2; 2; -2; -2" keyTimes="0; 0.5; 0.991667; 1" keySplines="0 0 1 1; 0 0 1 1; 0 0 1 1" fill="freeze" /><g transform="scale(2.53,2.53) translate(-47.818,-46.361)"><g transform="matrix(0.365,0,0,0.365,146.721,144.182)" id="i13"><g id="i4"><path stroke-width="3" stroke="#ffffff" fill="#aa6a26" d="M-209.75,-81.5C-209.75,-81.5,-337.75,-81.5,-337.75,-81.5C-337.75,-81.5,-338.5,-67.25,-331.75,-67.25C-325,-67.25,-227.75,-67.25,-218.5,-67.25C-209.25,-67.25,-209.75,-81.5,-209.75,-81.5Z" /></g></g></g></g></g></g></g></g></g></g><g id="i1"><g transform="translate(234,79.75)"><g transform="rotate(2)"><animateTransform repeatCount="indefinite" type="rotate" attributeName="transform" dur="2s" begin="0s" calcMode="spline" values="2; -2; 2; 2" keyTimes="0; 0.5; 0.991667; 1" keySplines="0.333 0 0.667 1; 0.333 0 0.667 1; 0 0 1 1" fill="freeze" /><g transform="scale(1,1) translate(135.5,220.25)"><g id="i2"><g transform="translate(-262.02,-226.206)"><g transform="rotate(-2)"><animateTransform repeatCount="indefinite" type="rotate" attributeName="transform" dur="2s" begin="0s" calcMode="spline" values="-2; 2; -2; -2" keyTimes="0; 0.5; 0.991667; 1" keySplines="0 0 1 1; 0 0 1 1; 0 0 1 1" fill="freeze" /><g transform="scale(2.53,2.53) translate(-47.818,-46.361)"><g transform="matrix(0.395,0,0,0.395,154.942,143.281)" id="i14"><g id="i4"><path stroke-width="3" stroke="#ffffff" fill="#f8e71c" d="M-209.75,-81.5C-209.75,-81.5,-248.25,-81.5,-248.25,-81.5C-248.25,-81.5,-337.75,-81.5,-337.75,-81.5C-337.75,-81.5,-338.5,-67.25,-331.75,-67.25C-325,-67.25,-227.75,-67.25,-218.5,-67.25C-209.25,-67.25,-209.75,-81.5,-209.75,-81.5Z" /></g><g id="i8"><path stroke-width="3" stroke="#ffffff" fill="#ecd84f" d="M-246.113,-81C-246.113,-81,-252.625,-67.125,-252.625,-67.125C-252.625,-67.125,-249,-67.25,-249,-67.25C-249,-67.25,-242.488,-81,-242.488,-81C-242.488,-81,-246.113,-81,-246.113,-81Z" /></g><g id="i9"><path stroke-width="3" stroke="#ffffff" fill="#ecd84f" d="M-223.3,-81.031C-223.3,-81.031,-229.781,-66.969,-229.781,-66.969C-229.781,-66.969,-227.25,-67.25,-227.25,-67.25C-227.25,-67.25,-220.613,-81.031,-220.613,-81.031C-220.613,-81.031,-223.3,-81.031,-223.3,-81.031Z" /></g></g></g></g></g></g></g></g></g></g><g id="i1"><g transform="translate(234,79.75)"><g transform="rotate(2)"><animateTransform repeatCount="indefinite" type="rotate" attributeName="transform" dur="2s" begin="0s" calcMode="spline" values="2; -2; 2; 2" keyTimes="0; 0.5; 0.991667; 1" keySplines="0.333 0 0.667 1; 0.333 0 0.667 1; 0 0 1 1" fill="freeze" /><g transform="scale(1,1) translate(135.5,220.25)"><g id="i2"><g transform="translate(-262.02,-226.206)"><g transform="rotate(-2)"><animateTransform repeatCount="indefinite" type="rotate" attributeName="transform" dur="2s" begin="0s" calcMode="spline" values="-2; 2; -2; -2" keyTimes="0; 0.5; 0.991667; 1" keySplines="0 0 1 1; 0 0 1 1; 0 0 1 1" fill="freeze" /><g transform="scale(2.53,2.53) translate(-47.818,-46.361)"><g transform="matrix(0.395,0,0,0.395,154.941,143.281)" id="i15"><g id="i4"><path stroke-width="3" stroke="#ffffff" fill="#ecd84f" d="M-237.863,-81.25C-237.863,-81.25,-244.375,-67.125,-244.375,-67.125C-244.375,-67.125,-232.25,-67.125,-232.25,-67.125C-232.25,-67.125,-226.113,-80.875,-226.113,-80.875C-226.113,-80.875,-237.863,-81.25,-237.863,-81.25Z" /></g></g></g></g></g></g></g></g></g></g><g id="i1"><g transform="translate(234,79.75)"><g transform="rotate(2)"><animateTransform repeatCount="indefinite" type="rotate" attributeName="transform" dur="2s" begin="0s" calcMode="spline" values="2; -2; 2; 2" keyTimes="0; 0.5; 0.991667; 1" keySplines="0.333 0 0.667 1; 0.333 0 0.667 1; 0 0 1 1" fill="freeze" /><g transform="scale(1,1) translate(135.5,220.25)"><g opacity="0" id="i2"><g transform="translate(-262.02,-226.206)"><g transform="rotate(-2)"><animateTransform repeatCount="indefinite" type="rotate" attributeName="transform" dur="2s" begin="0s" calcMode="spline" values="-2; 2; -2; -2" keyTimes="0; 0.5; 0.991667; 1" keySplines="0 0 1 1; 0 0 1 1; 0 0 1 1" fill="freeze" /><g transform="scale(2.53,2.53) translate(-47.818,-46.361)" /></g></g></g></g></g></g></g><g transform="matrix(1,0,0,1,378.5,300)" id="i16"><g id="i4"><path stroke-width="3" stroke="#ffffff" fill="#623a27" d="M-143.25,-54.5C-143.25,-54.5,-169.25,-8,-169.25,32.75C-169.25,73.5,-163.5,91,-143,91C-123.75,91,-116.25,75.25,-116.25,28.25C-116.25,-18.75,-143.25,-54.5,-143.25,-54.5Z" /></g></g><g transform="matrix(1,0,0,1,378.5,300)" id="i17"><g id="i4"><path stroke-width="3" stroke="#ffffff" fill="#430010" d="M-169.25,32.75C-169.25,73.5,-163.5,91,-143,91C-123.75,91,-116.25,75.25,-116.25,28.25C-116.25,17.387,-122,75.544,-141.923,75.544C-166,75.544,-169.25,21.769,-169.25,32.75Z" /></g></g><g transform="matrix(1,0,0,1,318.5,300)" id="i18"><g id="i4"><path stroke-width="7" stroke="#ffffff" fill="#674104" d="M-90.5,127.5C-90.5,127.5,-273,128,-273,128C-273,128,-290.5,131,-290.5,188.5C-290.5,229,-276.5,236.5,-276.5,236.5C-276.5,236.5,-91.5,236.5,-91.5,236.5C-91.5,236.5,-104,225.5,-104,177C-104,137.5,-90.5,127.5,-90.5,127.5Z" /></g><g id="i8"><path stroke-width="7" stroke="#ffffff" fill="#674104" d="" /></g><g id="i19" transform="matrix(1,0,0,1,6.375,132.75)"><rect ry="20" rx="20" height="10" width="236.75" y="-5" x="-118.375" stroke-width="7" stroke="#ffffff" fill="#674104" /></g><g id="i20" transform="matrix(1,0,0,1,6.375,231.25)"><rect ry="20" rx="20" height="10" width="236.75" y="-5" x="-118.375" stroke-width="7" stroke="#ffffff" fill="#674104" /></g></g><g transform="matrix(1,0,0,1,318.5,300)" id="i21"><g id="i4"><path stroke-width="7" stroke="#ffffff" fill="#ffffff" d="M-55,134.5C-55,134.5,-83.5,127.75,-97.5,150C-111.5,172.25,-93.5,230,-93.5,230C-93.5,230,109.75,229.75,109.75,229.75C109.75,229.75,109.75,203,109.75,203C109.75,203,115.5,203,115.5,203C115.5,203,115.5,190.5,115.5,190.5C115.5,190.5,115.5,164,115.5,164C115.5,164,119.25,164,119.25,164C119.25,164,119.25,135.25,119.25,135.25C119.25,135.25,-55,134.5,-55,134.5Z" /></g><g id="i8"><path stroke-width="3" stroke="#e17710" fill="#ffffff" d="M-113.5,142C-113.5,142,-119,152,-119,181.5C-119,211,-116,227.5,-116,227.5" /></g><g id="i9"><path stroke-width="3" stroke="#e17710" fill="#ffffff" d="M-113.5,142C-113.5,142,-119,152,-119,181.5C-119,211,-116,227.5,-116,227.5" /></g></g><g transform="matrix(1,0,0,1,158.5,300)" id="i22"><g id="i9"><path stroke-width="3" stroke="#e17710" fill="#ffffff" d="M-113.5,142C-113.5,142,-119,152,-119,181.5C-119,211,-116,227.5,-116,227.5" /></g></g><g transform="matrix(1,0,0,1,318.5,300)" id="i23"><g id="i4"><path stroke-width="7" stroke="#ffffff" fill="#674104" d="M-100,135C-113.25,136.5,-110.5,147.75,-112.25,191.5C-114,235.25,-103,233.25,-65.75,233.25C-95.5,233.25,-92.25,195,-92.25,167.75C-92.25,140.5,-75.25,134,-75.25,134C-75.25,134,-86.75,133.5,-100,135Z" /></g></g><g transform="matrix(1,0,0,1,318.5,339)" id="i24"><g id="i4"><path stroke-width="7" stroke="#ffffff" fill="#adadad" d="M-66.5,162C-66.5,162,-66.5,163.75,-66.5,163.75C-66.5,163.75,114.813,163.75,114.813,163.75C114.813,163.75,114.813,162.188,114.813,162.188C114.813,162.188,-66.5,162,-66.5,162Z" /></g></g><g transform="matrix(1,0,0,1,318.5,302.5)" id="i25"><g id="i4"><path stroke-width="7" stroke="#ffffff" fill="#adadad" d="M-66.5,162C-66.5,162,-66.5,163.75,-66.5,163.75C-66.5,163.75,114.813,163.75,114.813,163.75C114.813,163.75,114.813,162.188,114.813,162.188C114.813,162.188,-66.5,162,-66.5,162Z" /></g></g><g transform="matrix(1,0,0,1,318.5,300)" id="i26"><g id="i4"><path stroke-width="3" stroke="#e17710" fill="#ff9000" d="M-241.5,161.25C-241.5,161.25,-250.75,161.25,-250.75,161.25C-250.75,161.25,-250.25,210.5,-250.25,210.5C-250.25,210.5,-226.25,210.5,-226.25,210.5C-226.25,210.5,-226.25,201.75,-226.25,201.75C-226.25,201.75,-241.5,201.75,-241.5,201.75C-241.5,201.75,-241.5,161.25,-241.5,161.25Z" /></g><g id="i8"><path stroke-width="3" stroke="#ffffff" fill="#ff9000" d="M-201.75,160.5C-201.75,160.5,-211.75,160.5,-211.75,160.5C-211.75,160.5,-223.5,210.25,-223.5,210.25C-223.5,210.25,-213.75,210.25,-213.75,210.25C-213.75,210.25,-212.5,200.5,-212.5,200.5C-212.5,200.5,-201.25,200.5,-201.25,200.5C-201.25,200.5,-199.5,209.75,-199.5,209.75C-199.5,209.75,-190,209.75,-190,209.75C-190,209.75,-201.75,160.5,-201.75,160.5Z" /></g><g id="i9"><path stroke-width="3" stroke="#ffffff" fill="#ff9000" d="M-147.25,159.75C-147.25,159.75,-157.5,159.75,-157.5,159.75C-157.5,159.75,-161,188,-161,188C-161,188,-166.25,160.75,-166.25,160.75C-166.25,160.75,-172.75,160.75,-172.75,160.75C-172.75,160.75,-178.75,188,-178.75,188C-178.75,188,-181.5,161.25,-181.5,161.25C-181.5,161.25,-189.75,161.25,-189.75,161.25C-189.75,161.25,-185.5,210.75,-185.5,210.75C-185.5,210.75,-175.75,210.75,-175.75,210.75C-175.75,210.75,-169.75,183.75,-169.75,183.75C-169.75,183.75,-164.25,210.5,-164.25,210.5C-164.25,210.5,-154.75,210.5,-154.75,210.5C-154.75,210.5,-147.25,159.75,-147.25,159.75Z" /></g></g><g transform="matrix(1,0,0,1,318.25,300)" id="i27"><g id="i4"><path stroke-width="3" stroke="#ffffff" fill="#674104" d="M-207.75,175.25C-207.75,175.25,-211.25,194.25,-211.25,194.25C-211.25,194.25,-204,194.25,-204,194.25C-204,194.25,-207.75,175.25,-207.75,175.25Z" /></g></g><g transform="matrix(1.117,0,0,1,378.5,301.5)" id="i28"><g id="i20" transform="matrix(1,0,0,1,-128.72,-148)"><rect ry="20" rx="20" height="226" width="14.775" y="-113" x="-7.388" stroke-width="3" stroke="#ffffff" fill="#430010" /></g></g><g transform="matrix(1.452,0,0,1.009,378.5,301.5)" id="i29"><g id="i19" transform="matrix(1,0,0,1,2.5,240.5)"><rect ry="20" rx="20" height="11" width="663" y="-5.5" x="-331.5" stroke-width="7" stroke="#ffffff" fill="#f5a623" /></g></g><g id="i1"><g transform="translate(234,79.75)"><g transform="rotate(2)"><animateTransform repeatCount="indefinite" type="rotate" attributeName="transform" dur="2s" begin="0s" calcMode="spline" values="2; -2; 2; 2" keyTimes="0; 0.5; 0.991667; 1" keySplines="0.333 0 0.667 1; 0.333 0 0.667 1; 0 0 1 1" fill="freeze" /><g transform="scale(1,1) translate(135.5,220.25)"><g id="i4"><path stroke-width="3" stroke="#ffffff" fill="#430010" d="M-7.5,-231.5C-7.5,-231.5,-262.5,-231.5,-262.5,-231.5C-262.5,-231.5,-261.5,-219,-261.5,-219C-261.5,-219,-135,-207,-135,-207C-135,-207,-7.5,-219,-7.5,-219C-7.5,-219,-7.5,-231.5,-7.5,-231.5Z" /></g></g></g></g></g><g transform="matrix(1,0,0,1,378.5,300)" id="i30"><g id="i31" transform="matrix(0.806,0,0,1.268,-143.75,-212.25)"><ellipse ry="24.25" rx="24.25" cy="0" cx="0" stroke-width="3" stroke="#ffffff" fill="#613a26" /></g></g><g transform="matrix(0.175,-0.074,0.074,0.175,282.79,97.975)" id="i32"><g id="i31" transform="matrix(0.806,0,0,1.268,-143.75,-212.25)"><ellipse ry="24.25" rx="24.25" cy="0" cx="0" stroke-width="3" stroke="#ffffff" fill="#935a38" /></g></g><g transform="matrix(1,0,0,1,378.5,300)" id="i33"><g id="i4"><path d="" /></g></g><g id="i1"><g transform="translate(234,79.75)"><g transform="rotate(2)"><animateTransform repeatCount="indefinite" type="rotate" attributeName="transform" dur="2s" begin="0s" calcMode="spline" values="2; -2; 2; 2" keyTimes="0; 0.5; 0.991667; 1" keySplines="0.333 0 0.667 1; 0.333 0 0.667 1; 0 0 1 1" fill="freeze" /><g transform="scale(1,1) translate(135.5,220.25)"><g id="i2"><g transform="translate(-10.191,-221.419)"><g transform="rotate(2)"><animateTransform repeatCount="indefinite" type="rotate" attributeName="transform" dur="2s" begin="0s" calcMode="spline" values="2; -2; 2; 2" keyTimes="0; 0.5; 0.991667; 1" keySplines="0 0 1 1; 0 0 1 1; 0 0 1 1" fill="freeze" /><g transform="scale(2.53,2.53) translate(-45.379,-48.253)"><g transform="matrix(0.395,0,0,0.395,52.964,135.771)" id="i34"><g id="i31" transform="matrix(1.223,0,0,1.223,-17.375,-224.625)"><ellipse ry="9.875" rx="9.875" cy="0" cx="0" stroke-width="3" stroke="#ffffff" fill="#613a26" /></g></g></g></g></g></g></g></g></g></g><g id="i1"><g transform="translate(234,79.75)"><g transform="rotate(2)"><animateTransform repeatCount="indefinite" type="rotate" attributeName="transform" dur="2s" begin="0s" calcMode="spline" values="2; -2; 2; 2" keyTimes="0; 0.5; 0.991667; 1" keySplines="0.333 0 0.667 1; 0.333 0 0.667 1; 0 0 1 1" fill="freeze" /><g transform="scale(1,1) translate(135.5,220.25)"><g id="i2"><g transform="translate(-262.02,-226.206)"><g transform="rotate(-2)"><animateTransform repeatCount="indefinite" type="rotate" attributeName="transform" dur="2s" begin="0s" calcMode="spline" values="-2; 2; -2; -2" keyTimes="0; 0.5; 0.991667; 1" keySplines="0 0 1 1; 0 0 1 1; 0 0 1 1" fill="freeze" /><g transform="scale(2.53,2.53) translate(-47.818,-46.361)"><g transform="matrix(0.395,0,0,0.395,54.743,135.771)" id="i35"><g id="i31" transform="matrix(1.223,0,0,1.223,-17.375,-224.625)"><ellipse ry="9.875" rx="9.875" cy="0" cx="0" stroke-width="3" stroke="#ffffff" fill="#613a26" /></g></g></g></g></g></g></g></g></g></g><g transform="matrix(1,0,0,1,251.625,412.5)" id="i36"><g id="i31" transform="matrix(1.223,0,0,1.223,-17.375,-224.625)"><ellipse ry="9.875" rx="9.875" cy="0" cx="0" stroke-width="3" stroke="#ffffff" fill="#613a26" /></g></g><g transform="matrix(0.303,0,0,0.303,239.308,250.392)" id="i37"><g id="i31" transform="matrix(1.223,0,0,1.223,-17.375,-224.625)"><ellipse ry="9.875" rx="9.875" cy="0" cx="0" stroke-width="3" stroke="#ffffff" fill="#935a38" /></g></g><g id="i1"><g transform="translate(234,79.75)"><g transform="rotate(2)"><animateTransform repeatCount="indefinite" type="rotate" attributeName="transform" dur="2s" begin="0s" calcMode="spline" values="2; -2; 2; 2" keyTimes="0; 0.5; 0.991667; 1" keySplines="0.333 0 0.667 1; 0.333 0 0.667 1; 0 0 1 1" fill="freeze" /><g transform="scale(1,1) translate(135.5,220.25)"><g id="i2"><g transform="translate(-10.191,-221.419)"><g transform="rotate(2)"><animateTransform repeatCount="indefinite" type="rotate" attributeName="transform" dur="2s" begin="0s" calcMode="spline" values="2; -2; 2; 2" keyTimes="0; 0.5; 0.991667; 1" keySplines="0 0 1 1; 0 0 1 1; 0 0 1 1" fill="freeze" /><g transform="scale(2.53,2.53) translate(-45.379,-48.253)"><g transform="matrix(0.12,0,0,0.12,47.157,71.697)" id="i38"><g id="i31" transform="matrix(1.223,0,0,1.223,-17.375,-224.625)"><ellipse ry="9.875" rx="9.875" cy="0" cx="0" stroke-width="3" stroke="#ffffff" fill="#935a38" /></g></g></g></g></g></g></g></g></g></g><g id="i1"><g transform="translate(234,79.75)"><g transform="rotate(2)"><animateTransform repeatCount="indefinite" type="rotate" attributeName="transform" dur="2s" begin="0s" calcMode="spline" values="2; -2; 2; 2" keyTimes="0; 0.5; 0.991667; 1" keySplines="0.333 0 0.667 1; 0.333 0 0.667 1; 0 0 1 1" fill="freeze" /><g transform="scale(1,1) translate(135.5,220.25)"><g id="i2"><g transform="translate(-262.02,-226.206)"><g transform="rotate(-2)"><animateTransform repeatCount="indefinite" type="rotate" attributeName="transform" dur="2s" begin="0s" calcMode="spline" values="-2; 2; -2; -2" keyTimes="0; 0.5; 0.991667; 1" keySplines="0 0 1 1; 0 0 1 1; 0 0 1 1" fill="freeze" /><g transform="scale(2.53,2.53) translate(-47.818,-46.361)"><g transform="matrix(0.12,0,0,0.12,48.936,70.709)" id="i39"><g id="i31" transform="matrix(1.223,0,0,1.223,-17.375,-224.625)"><ellipse ry="9.875" rx="9.875" cy="0" cx="0" stroke-width="3" stroke="#ffffff" fill="#935a38" /></g></g></g></g></g></g></g></g></g></g><g transform="matrix(1,0,0,1,378.5,300)" id="i40"><g id="i31" transform="matrix(1,0,0,1,-143,-75.75)"><ellipse ry="9.5" rx="17.75" cy="0" cx="0" stroke-width="3" stroke="#ffffff" fill="#623a27" /></g><g id="i41" transform="matrix(0.295,0,0,0.295,-143,-75.75)"><ellipse ry="9.5" rx="17.75" cy="0" cx="0" stroke-width="3" stroke="#ffffff" fill="#935a38" /></g></g><g transform="matrix(1,0,0,1,378.5,300)" id="i42"><g id="i4"><path stroke-width="3" stroke="#ffffff" fill="#623a27" d="M-139.5,81.25C-187,81.25,-241.75,87.5,-257.75,90C-262.497,90.179,-265,97.75,-265,97.75C-265,97.75,-265,107.75,-265,107.75C-265,107.75,-265.063,110.25,-265.063,110.25C-265.063,110.25,-268.5,110.25,-267.75,110.25C-275.75,110.25,-277.75,118.25,-277.75,118.25C-277.75,118.25,-277.75,127.75,-277.75,127.75C-277.75,127.75,-7.25,127.75,-7.25,127.75C-7.25,127.75,-7,127.75,-7,118.75C-7,109.75,-21.25,110.5,-21.25,110.5C-21.25,110.5,-21.25,105.5,-21.25,100.5C-21.25,95.5,-28,92.25,-28,92.25C-28,92.25,-92,81.25,-139.5,81.25Z" /></g><g id="i19" transform="matrix(1,0,0,1,-143.5,106.625)"><rect height="6.75" width="244" y="-3.375" x="-122" stroke-width="3" stroke="#ffffff" fill="#430010" /></g><g id="i8" transform="matrix(1,0,0,1,2.5,0)"><path stroke-width="3" stroke="#ffffff" fill="#935a38" d="M-120.5,90C-120.5,90,-166.5,90,-169.5,90C-172.5,90,-173.25,96.25,-173.25,96.25C-173.25,96.25,-116.25,96.75,-116.25,96.25C-116.25,90.75,-120.5,90,-120.5,90Z" /></g></g><g transform="matrix(0.756,0,0,0.756,378.5,355.5)" id="i43"><g id="i4"><path stroke-width="3" stroke="#ffffff" fill="#583f34" d="M283,220.5C283,220.5,120.25,220.5,112,220.5C103.75,220.5,102.75,227.75,102.75,227.75C102.75,227.75,102.75,239,102.75,239C102.75,239,290.75,240.5,290.75,240.5C290.75,240.5,290.75,236.5,290.75,229.5C290.75,222.5,283,220.5,283,220.5Z" /></g><g id="i8" transform="matrix(0.896,0,0,0.896,18.75,8.25)"><path stroke-width="3" stroke="#ffffff" fill="#583f34" d="M283,220.5C283,220.5,120.25,220.5,112,220.5C103.75,220.5,102.75,227.75,102.75,227.75C102.75,227.75,102.75,239,102.75,239C102.75,239,290.75,240.5,290.75,240.5C290.75,240.5,290.75,236.5,290.75,229.5C290.75,222.5,283,220.5,283,220.5Z" /></g><g id="i9"><path stroke-width="3" stroke="#ffffff" fill="#623019" d="M279.375,216.625C279.375,216.625,110.875,216.625,110.875,216.625C110.875,216.625,110.844,220.531,110.844,220.531C110.844,220.531,279.375,220.5,279.375,220.5C279.375,220.5,279.375,216.625,279.375,216.625Z" /></g></g><g id="i44"><g transform="translate(1055,454.5)"><animateMotion repeatCount="indefinite" dur="2s" begin="0s" calcMode="spline" keyTimes="0; 0.470834; 1" keySplines="0.333 0 0 1; 0 0 1 1" keyPoints="0; 1; 1" path="M0 0 C-64.5 -44 -218.5 -71 -321 0" fill="freeze" /><g transform="rotate(30)"><animateTransform repeatCount="indefinite" type="rotate" attributeName="transform" dur="2s" begin="0s" calcMode="spline" values="30; 30; 0; 0" keyTimes="0; 0.470834; 0.7; 1" keySplines="0 0 1 1; 1 0 0 1; 0 0 1 1" fill="freeze" /><g transform="scale(2.96,2.96) translate(-46.959,-54.054)"><g transform="matrix(0.338,0,0,0.338,-65.878,1.689)" id="i45"><g id="i19" transform="matrix(1,0,0,1,126.063,123.813)"><rect ry="20" rx="20" height="3.125" width="57.125" y="-1.563" x="-28.563" stroke-width="6" stroke="#ffffff" fill="#623a27" /></g><g id="i20" transform="matrix(1,0,0,1,126.063,185.813)"><rect ry="20" rx="20" height="3.125" width="57.125" y="-1.563" x="-28.563" stroke-width="6" stroke="#ffffff" fill="#623a27" /></g><g id="i46" transform="matrix(1,0,0,1,125.875,154.25)"><rect height="75.5" width="53.25" y="-37.75" x="-26.625" stroke-width="6" stroke="#ffffff" fill="#623a27" /></g></g></g></g></g></g><g id="i44"><g transform="translate(1055,454.5)"><animateMotion repeatCount="indefinite" dur="2s" begin="0s" calcMode="spline" keyTimes="0; 0.470834; 1" keySplines="0.333 0 0 1; 0 0 1 1" keyPoints="0; 1; 1" path="M0 0 C-64.5 -44 -218.5 -71 -321 0" fill="freeze" /><g transform="rotate(30)"><animateTransform repeatCount="indefinite" type="rotate" attributeName="transform" dur="2s" begin="0s" calcMode="spline" values="30; 30; 0; 0" keyTimes="0; 0.470834; 0.7; 1" keySplines="0 0 1 1; 1 0 0 1; 0 0 1 1" fill="freeze" /><g transform="scale(2.96,2.96) translate(-46.959,-54.054)"><g transform="matrix(0.338,0,0,0.338,-65.878,1.689)" id="i47"><g id="i19" transform="matrix(1,0,0,1,126.125,201)"><rect ry="20" rx="20" height="22.5" width="79.25" y="-11.25" x="-39.625" stroke-width="6" stroke="#ffffff" fill="#623a27" /></g><g id="i20" transform="matrix(1,0,0,1,126.125,107.75)"><rect ry="20" rx="20" height="22.5" width="79.25" y="-11.25" x="-39.625" stroke-width="6" stroke="#ffffff" fill="#623a27" /></g></g></g></g></g></g><g id="i44"><g transform="translate(1055,454.5)"><animateMotion repeatCount="indefinite" dur="2s" begin="0s" calcMode="spline" keyTimes="0; 0.470834; 1" keySplines="0.333 0 0 1; 0 0 1 1" keyPoints="0; 1; 1" path="M0 0 C-64.5 -44 -218.5 -71 -321 0" fill="freeze" /><g transform="rotate(30)"><animateTransform repeatCount="indefinite" type="rotate" attributeName="transform" dur="2s" begin="0s" calcMode="spline" values="30; 30; 0; 0" keyTimes="0; 0.470834; 0.7; 1" keySplines="0 0 1 1; 1 0 0 1; 0 0 1 1" fill="freeze" /><g transform="scale(2.96,2.96) translate(-46.959,-54.054)"><g transform="matrix(0.338,0,0,0.338,-65.878,1.689)" id="i48"><g id="i19" transform="matrix(1,0,0,1,159.875,155.125)"><rect ry="20" rx="20" height="40.75" width="7.25" y="-20.375" x="-3.625" stroke-width="6" stroke="#ffffff" fill="#623a27" /></g><g id="i20" transform="matrix(1,0,0,1,166.875,154.375)"><rect height="23.75" width="17.75" y="-11.875" x="-8.875" stroke-width="6" stroke="#ffffff" fill="#623a27" /></g><g id="i46" transform="matrix(1,0,0,1,179.125,155)"><rect height="30.5" width="7.25" y="-15.25" x="-3.625" stroke-width="6" stroke="#ffffff" fill="#623a27" /></g><g id="i4"><path stroke-width="6" stroke="#ffffff" fill="#623a27" d="M332,142C332,142,180.25,146.25,180.25,146.25C180.25,146.25,174.75,161.5,174.75,161.5C174.75,161.5,331.5,166.25,331.5,166.25C331.5,166.25,343.5,167.5,343.5,155.25C343.5,143,332,142,332,142Z" /></g></g></g></g></g></g><g id="i44"><g transform="translate(1055,454.5)"><animateMotion repeatCount="indefinite" dur="2s" begin="0s" calcMode="spline" keyTimes="0; 0.470834; 1" keySplines="0.333 0 0 1; 0 0 1 1" keyPoints="0; 1; 1" path="M0 0 C-64.5 -44 -218.5 -71 -321 0" fill="freeze" /><g transform="rotate(30)"><animateTransform repeatCount="indefinite" type="rotate" attributeName="transform" dur="2s" begin="0s" calcMode="spline" values="30; 30; 0; 0" keyTimes="0; 0.470834; 0.7; 1" keySplines="0 0 1 1; 1 0 0 1; 0 0 1 1" fill="freeze" /><g transform="scale(2.96,2.96) translate(-46.959,-54.054)"><g transform="matrix(0.338,0,0,0.338,-65.878,1.689)" id="i49" /></g></g></g></g><g id="i44"><g transform="translate(1055,454.5)"><animateMotion repeatCount="indefinite" dur="2s" begin="0s" calcMode="spline" keyTimes="0; 0.470834; 1" keySplines="0.333 0 0 1; 0 0 1 1" keyPoints="0; 1; 1" path="M0 0 C-64.5 -44 -218.5 -71 -321 0" fill="freeze" /><g transform="rotate(30)"><animateTransform repeatCount="indefinite" type="rotate" attributeName="transform" dur="2s" begin="0s" calcMode="spline" values="30; 30; 0; 0" keyTimes="0; 0.470834; 0.7; 1" keySplines="0 0 1 1; 1 0 0 1; 0 0 1 1" fill="freeze" /><g transform="scale(2.96,2.96) translate(-46.959,-54.054)"><g transform="matrix(0.331,0,0,0.338,-64.865,1.689)" id="i50"><g id="i19" transform="matrix(1,0,0,1,125.875,154.875)"><rect ry="10" rx="10" height="54.25" width="63.75" y="-27.125" x="-31.875" stroke-width="6" stroke="#ffffff" fill="#d2a23c" /></g></g></g></g></g></g><g opacity="0" id="i44"><g transform="translate(1055,454.5)"><animateMotion repeatCount="indefinite" dur="2s" begin="0s" calcMode="spline" keyTimes="0; 0.470834; 1" keySplines="0.333 0 0 1; 0 0 1 1" keyPoints="0; 1; 1" path="M0 0 C-64.5 -44 -218.5 -71 -321 0" fill="freeze" /><g transform="rotate(30)"><animateTransform repeatCount="indefinite" type="rotate" attributeName="transform" dur="2s" begin="0s" calcMode="spline" values="30; 30; 0; 0" keyTimes="0; 0.470834; 0.7; 1" keySplines="0 0 1 1; 1 0 0 1; 0 0 1 1" fill="freeze" /><g transform="scale(2.96,2.96) translate(-46.959,-54.054)" /></g></g></g><g id="i51"><g transform="translate(515.625,509.875) rotate(45)"><g transform="scale(0,0)"><animateTransform repeatCount="indefinite" type="scale" attributeName="transform" dur="2s" begin="0s" calcMode="spline" values="0 0; 0 0; 1.915 1.915; 1.915 1.915; 0 0; 0 0" keyTimes="0; 0.541667; 0.641667; 0.675; 0.75; 1" keySplines="0 0 1 1; 1 0 1 1; 0 0 1 1; 0 0 0 1; 0 0 1 1" fill="freeze" /><g transform="translate(-203.125,-200.625)"><g id="i4" transform="matrix(1,0,0,1,0,0)"><path stroke-width="3" stroke="#ffffff" fill="#ffffff" d="M194.75,191.5C194.75,191.5,199.5,200.25,199.5,200.25C199.5,200.25,194.75,209.75,194.75,209.75C194.75,209.75,204,205.25,204,205.25C204,205.25,212.25,209.75,212.25,209.75C212.25,209.75,207.5,199.75,207.5,199.75C207.5,199.75,212.25,191.25,212.25,191.25C212.25,191.25,202.997,195.882,202.997,195.882C202.997,195.882,194.75,191.5,194.75,191.5Z" /></g></g></g></g></g><g transform="matrix(1,0,0,1,400,300)" id="i52"><g id="i4"><path stroke-linejoin="round" stroke-linecap="round" stroke-width="2" stroke="#ffffff" fill="#ffffff" d="M81,203.25"><set fill="freeze" dur="0.017s" begin="1.3166666666666667s" to="M81,203.25" attributeName="d" /><set fill="freeze" dur="0.017s" begin="1.3333333333333333s" to="M81,203.25C81,203.25,79.389,202.218,76.974,200.67" attributeName="d" /><set fill="freeze" dur="0.017s" begin="1.35s" to="M81,203.25C81,203.25,74.562,199.125,68.125,195" attributeName="d" /><set fill="freeze" dur="0.017s" begin="1.3666666666666667s" to="M81,203.25C81,203.25,66.519,193.971,59.276,189.33" attributeName="d" /><set fill="freeze" dur="0.017s" begin="1.3833333333333333s" to="M81,203.25C81,203.25,55.25,186.75,55.25,186.75" attributeName="d" /><set fill="freeze" dur="0.017s" begin="1.4s" to="M76.974,200.67C69.731,196.029,55.25,186.75,55.25,186.75M81,203.25" attributeName="d" /><set fill="freeze" dur="0.017s" begin="1.4166666666666667s" to="M68.125,195C61.687,190.875,55.25,186.75,55.25,186.75M81,203.25" attributeName="d" /><set fill="freeze" dur="0.017s" begin="1.4333333333333333s" to="M59.276,189.33C56.861,187.782,55.25,186.75,55.25,186.75M81,203.25" attributeName="d" /><set fill="freeze" dur="0.017s" begin="1.45s" to="M81,203.25" attributeName="d" /></path></g><g id="i8" transform="matrix(1,0,0,1,2.375,-1)"><path stroke-width="2" stroke="#ffffff" fill="#ff0000" d="M73,205.75"><set fill="freeze" dur="0.017s" begin="1.3166666666666667s" to="M73,205.75" attributeName="d" /><set fill="freeze" dur="0.017s" begin="1.3333333333333333s" to="M73,205.75C73,205.75,72.328,205.343,71.319,204.734" attributeName="d" /><set fill="freeze" dur="0.017s" begin="1.35s" to="M73,205.75C73,205.75,70.312,204.125,67.625,202.5" attributeName="d" /><set fill="freeze" dur="0.017s" begin="1.3666666666666667s" to="M73,205.75C73,205.75,66.955,202.095,63.931,200.266" attributeName="d" /><set fill="freeze" dur="0.017s" begin="1.3833333333333333s" to="M73,205.75C73,205.75,62.25,199.25,62.25,199.25" attributeName="d" /><set fill="freeze" dur="0.017s" begin="1.4s" to="M71.319,204.734C68.295,202.905,62.25,199.25,62.25,199.25M73,205.75" attributeName="d" /><set fill="freeze" dur="0.017s" begin="1.4166666666666667s" to="M67.625,202.5C64.937,200.875,62.25,199.25,62.25,199.25M73,205.75" attributeName="d" /><set fill="freeze" dur="0.017s" begin="1.4333333333333333s" to="M63.931,200.266C62.922,199.657,62.25,199.25,62.25,199.25M73,205.75" attributeName="d" /><set fill="freeze" dur="0.017s" begin="1.45s" to="M73,205.75" attributeName="d" /></path></g><g id="i9" transform="matrix(1,0,0,1,2.375,-1)"><path stroke-width="2" stroke="#ffffff" fill="#ff0000" d="M81.625,199.625"><set fill="freeze" dur="0.017s" begin="1.3166666666666667s" to="M81.625,199.625" attributeName="d" /><set fill="freeze" dur="0.017s" begin="1.3333333333333333s" to="M81.625,199.625C81.625,199.625,80.554,198.929,78.947,197.886" attributeName="d" /><set fill="freeze" dur="0.017s" begin="1.35s" to="M81.625,199.625C81.625,199.625,77.344,196.844,73.062,194.062" attributeName="d" /><set fill="freeze" dur="0.017s" begin="1.3666666666666667s" to="M81.625,199.625C81.625,199.625,71.995,193.369,67.178,190.239" attributeName="d" /><set fill="freeze" dur="0.017s" begin="1.3833333333333333s" to="M81.625,199.625C81.625,199.625,64.5,188.5,64.5,188.5" attributeName="d" /><set fill="freeze" dur="0.017s" begin="1.4s" to="M78.947,197.886C74.13,194.756,64.5,188.5,64.5,188.5M81.625,199.625" attributeName="d" /><set fill="freeze" dur="0.017s" begin="1.4166666666666667s" to="M73.062,194.062C68.781,191.281,64.5,188.5,64.5,188.5M81.625,199.625" attributeName="d" /><set fill="freeze" dur="0.017s" begin="1.4333333333333333s" to="M67.178,190.239C65.571,189.196,64.5,188.5,64.5,188.5M81.625,199.625" attributeName="d" /><set fill="freeze" dur="0.017s" begin="1.45s" to="M81.625,199.625" attributeName="d" /></path></g></g><g transform="matrix(-1,0,0,1,652,300)" id="i53"><g id="i4"><path stroke-linejoin="round" stroke-linecap="round" stroke-width="2" stroke="#ffffff" fill="#ffffff" d="M81,203.25"><set fill="freeze" dur="0.017s" begin="1.3166666666666667s" to="M81,203.25" attributeName="d" /><set fill="freeze" dur="0.017s" begin="1.3333333333333333s" to="M81,203.25C81,203.25,79.389,202.218,76.974,200.67" attributeName="d" /><set fill="freeze" dur="0.017s" begin="1.35s" to="M81,203.25C81,203.25,74.562,199.125,68.125,195" attributeName="d" /><set fill="freeze" dur="0.017s" begin="1.3666666666666667s" to="M81,203.25C81,203.25,66.519,193.971,59.276,189.33" attributeName="d" /><set fill="freeze" dur="0.017s" begin="1.3833333333333333s" to="M81,203.25C81,203.25,55.25,186.75,55.25,186.75" attributeName="d" /><set fill="freeze" dur="0.017s" begin="1.4s" to="M76.974,200.67C69.731,196.029,55.25,186.75,55.25,186.75M81,203.25" attributeName="d" /><set fill="freeze" dur="0.017s" begin="1.4166666666666667s" to="M68.125,195C61.687,190.875,55.25,186.75,55.25,186.75M81,203.25" attributeName="d" /><set fill="freeze" dur="0.017s" begin="1.4333333333333333s" to="M59.276,189.33C56.861,187.782,55.25,186.75,55.25,186.75M81,203.25" attributeName="d" /><set fill="freeze" dur="0.017s" begin="1.45s" to="M81,203.25" attributeName="d" /></path></g><g id="i8" transform="matrix(1,0,0,1,2.375,-1)"><path stroke-width="2" stroke="#ffffff" fill="#ff0000" d="M73,205.75"><set fill="freeze" dur="0.017s" begin="1.3166666666666667s" to="M73,205.75" attributeName="d" /><set fill="freeze" dur="0.017s" begin="1.3333333333333333s" to="M73,205.75C73,205.75,72.328,205.343,71.319,204.734" attributeName="d" /><set fill="freeze" dur="0.017s" begin="1.35s" to="M73,205.75C73,205.75,70.312,204.125,67.625,202.5" attributeName="d" /><set fill="freeze" dur="0.017s" begin="1.3666666666666667s" to="M73,205.75C73,205.75,66.955,202.095,63.931,200.266" attributeName="d" /><set fill="freeze" dur="0.017s" begin="1.3833333333333333s" to="M73,205.75C73,205.75,62.25,199.25,62.25,199.25" attributeName="d" /><set fill="freeze" dur="0.017s" begin="1.4s" to="M71.319,204.734C68.295,202.905,62.25,199.25,62.25,199.25M73,205.75" attributeName="d" /><set fill="freeze" dur="0.017s" begin="1.4166666666666667s" to="M67.625,202.5C64.937,200.875,62.25,199.25,62.25,199.25M73,205.75" attributeName="d" /><set fill="freeze" dur="0.017s" begin="1.4333333333333333s" to="M63.931,200.266C62.922,199.657,62.25,199.25,62.25,199.25M73,205.75" attributeName="d" /><set fill="freeze" dur="0.017s" begin="1.45s" to="M73,205.75" attributeName="d" /></path></g><g id="i9" transform="matrix(1,0,0,1,2.375,-1)"><path stroke-width="2" stroke="#ffffff" fill="#ff0000" d="M81.625,199.625"><set fill="freeze" dur="0.017s" begin="1.3166666666666667s" to="M81.625,199.625" attributeName="d" /><set fill="freeze" dur="0.017s" begin="1.3333333333333333s" to="M81.625,199.625C81.625,199.625,80.554,198.929,78.947,197.886" attributeName="d" /><set fill="freeze" dur="0.017s" begin="1.35s" to="M81.625,199.625C81.625,199.625,77.344,196.844,73.062,194.062" attributeName="d" /><set fill="freeze" dur="0.017s" begin="1.3666666666666667s" to="M81.625,199.625C81.625,199.625,71.995,193.369,67.178,190.239" attributeName="d" /><set fill="freeze" dur="0.017s" begin="1.3833333333333333s" to="M81.625,199.625C81.625,199.625,64.5,188.5,64.5,188.5" attributeName="d" /><set fill="freeze" dur="0.017s" begin="1.4s" to="M78.947,197.886C74.13,194.756,64.5,188.5,64.5,188.5M81.625,199.625" attributeName="d" /><set fill="freeze" dur="0.017s" begin="1.4166666666666667s" to="M73.062,194.062C68.781,191.281,64.5,188.5,64.5,188.5M81.625,199.625" attributeName="d" /><set fill="freeze" dur="0.017s" begin="1.4333333333333333s" to="M67.178,190.239C65.571,189.196,64.5,188.5,64.5,188.5M81.625,199.625" attributeName="d" /><set fill="freeze" dur="0.017s" begin="1.45s" to="M81.625,199.625" attributeName="d" /></path></g></g></svg>